<svg width="29" height="24" viewBox="0 0 29 24" fill="none" xmlns="http://www.w3.org/2000/svg">
<g clip-path="url(#clip0_458_40)">
<path d="M28.7116 23.6105C28.5393 23.9101 28.2846 24 27.9401 24C18.8839 23.9925 9.8277 23.9925 0.771519 23.9925C0.164777 23.9925 -0.00750732 23.8203 -0.00750732 23.206C-1.6687e-05 15.7304 -1.6687e-05 8.25471 -1.6687e-05 0.779054C-1.6687e-05 0.179803 0.172268 0.0075183 0.764028 0.0075183C4.41197 0.0075183 8.05242 0.0075183 11.7004 0.0075183C12.1348 0.0075183 12.3895 0.217256 12.397 0.561825C12.4045 0.838979 12.2247 1.07119 11.9475 1.11613C11.8202 1.1386 11.6854 1.1386 11.558 1.1386C8.20972 1.1386 4.8689 1.1386 1.52058 1.1386C1.40073 1.1386 1.28088 1.1386 1.14605 1.1386C1.14605 2.2622 1.14605 3.35583 1.14605 4.47194C9.95504 4.47194 18.764 4.47194 27.588 4.47194C27.588 3.36332 27.588 2.26969 27.588 1.1386C27.4532 1.1386 27.3333 1.1386 27.2135 1.1386C23.8801 1.1386 20.5393 1.1386 17.206 1.1386C17.0861 1.1386 16.9588 1.1386 16.8389 1.12362C16.5243 1.08617 16.3221 0.868942 16.3296 0.561825C16.3296 0.269691 16.5468 0.0374808 16.8464 2.76612e-05C16.9288 -0.00746298 17.0112 -0.00746298 17.1011 -0.00746298C20.7191 -0.00746298 24.3371 -0.00746298 27.9476 -0.0149536C28.2921 -0.0149536 28.5468 0.0824246 28.7191 0.374559C28.7116 8.12737 28.7116 15.8727 28.7116 23.6105ZM1.13107 22.839C9.96253 22.839 18.7715 22.839 27.5805 22.839C27.5805 17.1012 27.5805 11.3858 27.5805 5.64797C18.7565 5.64797 9.95504 5.64797 1.13107 5.64797C1.13107 11.3783 1.13107 17.1012 1.13107 22.839Z" fill="white"/>
<path d="M21.4532 3.38574C20.764 3.38574 20.0749 3.38574 19.3783 3.38574C19.1236 3.38574 18.8989 3.32582 18.764 3.07863C18.5543 2.68162 18.8464 2.25466 19.3333 2.24716C20.5393 2.23967 21.7378 2.24716 22.9438 2.24716C23.1311 2.24716 23.3183 2.24716 23.5056 2.24716C23.9176 2.25466 24.1573 2.4569 24.1648 2.80896C24.1648 3.16102 23.9401 3.37825 23.5206 3.37825C22.8315 3.39323 22.1423 3.38574 21.4532 3.38574Z" fill="white"/>
<path d="M14.3521 1.13108C14.03 1.13108 13.7903 0.88389 13.7978 0.561792C13.8053 0.254676 14.045 0.014976 14.3446 0.00748533C14.6592 -5.30947e-06 14.9064 0.254676 14.9139 0.569283C14.9139 0.89138 14.6742 1.13108 14.3521 1.13108Z" fill="white"/>
<path d="M26.412 2.80896C26.4195 3.13106 26.1798 3.37825 25.8577 3.37825C25.5431 3.37825 25.3034 3.15353 25.2959 2.84642C25.2809 2.53181 25.5281 2.26964 25.8427 2.25466C26.1423 2.23968 26.4045 2.49436 26.412 2.80896Z" fill="white"/>
<path d="M10.9364 12.3895C11.0262 12.4194 11.1161 12.4494 11.206 12.4794C12.5918 12.9288 13.5656 14.2621 13.5656 15.7228C13.5656 16.1648 13.5656 16.5992 13.5656 17.0412C13.5656 17.5131 13.3558 17.7153 12.8764 17.7153C10.2997 17.7153 7.72288 17.7153 5.13861 17.7153C4.91389 17.7153 4.68917 17.7228 4.46445 17.7153C4.16482 17.7003 3.91763 17.5206 3.91763 17.2509C3.92512 16.4794 3.85022 15.6779 4.00752 14.9363C4.28467 13.6704 5.12362 12.8389 6.38205 12.4494C6.427 12.4344 6.46445 12.412 6.53936 12.3895C6.02999 11.6854 5.82025 10.9213 6.0225 10.0674C6.1798 9.40072 6.52437 8.84641 7.07868 8.42694C8.08992 7.6554 9.56557 7.71533 10.5244 8.53181C11.3933 9.27338 12.0225 10.8689 10.9364 12.3895ZM5.02625 16.5543C7.53561 16.5543 9.98505 16.5543 12.4495 16.5543C12.4495 16.2771 12.4495 16.015 12.4495 15.7528C12.427 14.4644 11.4158 13.4532 10.1274 13.4457C9.20602 13.4382 8.27718 13.4382 7.35583 13.4457C6.23224 13.4532 5.29591 14.1947 5.08617 15.3033C5.01126 15.7078 5.04123 16.1273 5.02625 16.5543ZM8.74909 12.2921C9.69291 12.2921 10.3821 11.588 10.3746 10.6367C10.3746 9.7378 9.64048 9.0187 8.71913 9.02619C7.80527 9.02619 7.07868 9.76027 7.09366 10.6666C7.10864 11.6105 7.80527 12.2921 8.74909 12.2921Z" fill="white"/>
<path d="M14.352 19.4681C17.573 19.4681 20.794 19.4681 24.0225 19.4681C24.1573 19.4681 24.3071 19.4756 24.4344 19.5206C24.6966 19.603 24.809 19.8127 24.794 20.0824C24.779 20.3445 24.6367 20.5168 24.3745 20.5768C24.2547 20.6067 24.1348 20.6067 24.015 20.6067C17.5805 20.6067 11.146 20.6067 4.7041 20.6067C4.58425 20.6067 4.45691 20.6067 4.34455 20.5768C4.08987 20.5168 3.94005 20.352 3.91758 20.0899C3.89511 19.8127 4.01496 19.6105 4.26964 19.5206C4.39698 19.4756 4.5468 19.4681 4.68163 19.4681C7.9026 19.4681 11.1311 19.4681 14.352 19.4681Z" fill="white"/>
<path d="M21.1686 9.0187C20.1873 9.0187 19.206 9.0187 18.2247 9.0187C17.7753 9.0187 17.5356 8.79398 17.5506 8.41945C17.5581 8.15728 17.7229 7.96252 17.985 7.91009C18.1049 7.88762 18.2247 7.88013 18.3446 7.88013C20.2322 7.88013 22.1199 7.88013 24 7.88013C24.1199 7.88013 24.2472 7.88762 24.3596 7.91009C24.6218 7.96252 24.7791 8.15728 24.7865 8.42694C24.794 8.7041 24.6742 8.89885 24.412 8.98125C24.2997 9.0187 24.1723 9.02619 24.0525 9.02619C23.0937 9.0187 22.1349 9.0187 21.1686 9.0187Z" fill="white"/>
<path d="M21.1611 14.8015C20.1498 14.8015 19.1461 14.8015 18.1349 14.8015C17.8128 14.8015 17.5955 14.6217 17.5506 14.3446C17.5056 14.0599 17.6405 13.8127 17.9026 13.7153C17.9626 13.6929 18.03 13.6779 18.0899 13.6779C20.1349 13.6779 22.1798 13.6704 24.2247 13.6779C24.5693 13.6779 24.7865 13.9101 24.779 14.2472C24.7716 14.5693 24.5618 14.779 24.2322 14.794C24.1648 14.794 24.1049 14.794 24.0375 14.794C23.0862 14.8015 22.1274 14.8015 21.1611 14.8015Z" fill="white"/>
<path d="M21.1686 10.7715C22.1573 10.7715 23.1461 10.7715 24.1348 10.7715C24.4045 10.7715 24.6367 10.8539 24.7491 11.1161C24.8989 11.4682 24.6817 11.8352 24.3071 11.8876C24.1948 11.9026 24.0824 11.9026 23.9701 11.9026C22.1049 11.9026 20.2322 11.9026 18.3671 11.9026C18.2472 11.9026 18.1199 11.9026 18.0075 11.8801C17.7453 11.8352 17.573 11.6479 17.5506 11.3933C17.5281 11.1086 17.6629 10.8914 17.9251 10.809C18.0375 10.7715 18.1648 10.764 18.2847 10.764C19.251 10.7715 20.2098 10.7715 21.1686 10.7715Z" fill="white"/>
<path d="M21.1386 17.7154C20.1573 17.7154 19.1761 17.7154 18.1948 17.7154C17.7753 17.7154 17.5356 17.4832 17.5506 17.1161C17.5656 16.854 17.7304 16.6592 17.985 16.6068C18.0824 16.5918 18.1873 16.5843 18.2922 16.5843C20.2173 16.5843 22.1424 16.5843 24.06 16.5843C24.1498 16.5843 24.2472 16.5918 24.3371 16.6068C24.5993 16.6517 24.7491 16.809 24.7791 17.0787C24.8165 17.3708 24.6892 17.588 24.427 17.6704C24.3146 17.7079 24.1873 17.7154 24.0674 17.7154C23.1012 17.7154 22.1199 17.7154 21.1386 17.7154Z" fill="white"/>
</g>
<defs>
<clipPath id="clip0_458_40">
<rect width="28.7116" height="24" fill="white"/>
</clipPath>
</defs>
</svg>
