<svg width="12" height="11" viewBox="0 0 12 11" fill="none" xmlns="http://www.w3.org/2000/svg">
<path d="M12 5.50002C12 5.32321 11.9297 5.15364 11.8047 5.02862C11.6797 4.90359 11.5101 4.83336 11.3333 4.83336L2.27597 4.83336L5.8053 1.30536C5.93049 1.18017 6.00081 1.01039 6.00081 0.833356C6.00081 0.656321 5.93049 0.486538 5.8053 0.361355C5.68012 0.236173 5.51034 0.165847 5.3333 0.165847C5.15627 0.165847 4.98649 0.236173 4.8613 0.361355L0.194638 5.02802C0.132553 5.08995 0.0832963 5.16352 0.0496877 5.24451C0.0160791 5.3255 -0.0012207 5.41233 -0.0012207 5.50002C-0.0012207 5.58771 0.0160791 5.67454 0.0496877 5.75553C0.0832963 5.83653 0.132553 5.91009 0.194638 5.97202L4.8613 10.6387C4.92329 10.7007 4.99687 10.7498 5.07786 10.7834C5.15885 10.8169 5.24565 10.8342 5.3333 10.8342C5.51034 10.8342 5.68012 10.7639 5.8053 10.6387C5.93049 10.5135 6.00081 10.3437 6.00081 10.1667C6.00081 9.98965 5.93049 9.81987 5.8053 9.69469L2.27597 6.16669L11.3333 6.16669C11.5101 6.16669 11.6797 6.09645 11.8047 5.97143C11.9297 5.8464 12 5.67683 12 5.50002Z" fill="white"/>
</svg>
