<svg width="134" height="40" viewBox="0 0 134 40" fill="none" xmlns="http://www.w3.org/2000/svg">
<g clip-path="url(#clip0_10_595)">
<path d="M130.655 -0.00012207C130.655 -0.00012207 122.195 4.87616 121.725 17.2725C121.725 17.2725 114.851 15.51 111.032 22.2075C111.032 22.2075 102.807 20.1513 98.8118 26.1438C98.8118 26.1438 95.463 26.32 94.1705 29.4926C94.1118 29.6688 94.053 29.8451 93.9943 29.9626C93.9355 29.7863 93.8768 29.6101 93.818 29.4926C92.5255 26.32 89.1767 26.1438 89.1767 26.1438C85.2404 20.1513 76.9565 22.2075 76.9565 22.2075C73.1377 15.51 66.2639 17.2725 66.2639 17.2725C65.7939 4.87616 57.3337 -0.00012207 57.3337 -0.00012207L83.4191 7.22617C84.1241 9.98744 88.8242 13.2775 88.8242 13.2775L90.1755 16.5087C90.1755 16.5087 91.0567 15.6275 90.4692 14.6287C89.8817 13.63 89.6467 10.6337 89.6467 10.6337L91.1742 12.5137H96.6968L98.2243 10.6337C98.2243 10.6337 97.9893 13.63 97.4018 14.6287C96.8143 15.6275 97.6956 16.5087 97.6956 16.5087L99.0468 13.2775C99.0468 13.2775 103.747 9.98744 104.452 7.22617L130.655 -0.00012207Z" fill="url(#paint0_linear_10_595)"/>
<path d="M116.495 14.041L105.626 8.51851L105.743 8.22476L116.495 14.041Z" fill="#0E0E0E"/>
<path d="M108.505 16.8027L105.509 8.40138L105.803 8.28387L108.505 16.8027Z" fill="#0E0E0E"/>
<path d="M100.221 14.1C101.455 13.5125 102.63 12.7488 103.629 11.8675C104.099 11.3975 104.569 10.8687 104.921 10.2812C105.274 9.69373 105.45 9.04748 105.509 8.40122V8.28372H105.568C108.446 7.51997 111.325 6.75621 114.204 5.99246L118.551 4.8762C120.02 4.5237 121.43 4.1712 122.899 3.8187C121.489 4.22995 120.02 4.6412 118.61 5.05245L114.263 6.22746C111.384 6.99122 108.505 7.75497 105.626 8.51872L105.744 8.40122C105.685 9.10623 105.45 9.81123 105.039 10.3987C104.686 10.9862 104.157 11.515 103.687 11.985C103.159 12.455 102.571 12.8075 101.984 13.2188C101.455 13.5125 100.867 13.8063 100.221 14.1Z" fill="#0E0E0E"/>
<path d="M71.4915 14.0413L82.2429 8.22498L82.4191 8.51873L71.4915 14.0413Z" fill="#0E0E0E"/>
<path d="M79.5403 16.8029L82.1841 8.28406L82.4778 8.40156L79.5403 16.8029Z" fill="#0E0E0E"/>
<path d="M87.8239 14.1006C87.1776 13.8656 86.5901 13.5131 85.9439 13.1606C85.3563 12.8081 84.7688 12.3969 84.2401 11.9269C83.7113 11.4569 83.2413 10.9281 82.8888 10.3406C82.4776 9.7531 82.3013 9.04809 82.1838 8.34309L82.3013 8.46059C79.4225 7.69683 76.5437 6.93308 73.6649 6.16932L69.3174 4.99432C67.8486 4.58306 66.4386 4.17181 65.0286 3.76056C66.4973 4.11306 67.9074 4.46556 69.3761 4.81807L73.7237 5.93432C76.6025 6.69808 79.4813 7.46183 82.3601 8.22559H82.4188V8.34309C82.4776 8.98934 82.6538 9.6356 83.0063 10.2231C83.3588 10.8106 83.8288 11.3394 84.2988 11.8094C85.3564 12.7494 86.5314 13.5131 87.8239 14.1006Z" fill="#0E0E0E"/>
</g>
<path fill-rule="evenodd" clip-rule="evenodd" d="M13.0248 36.2973C13.0248 35.0013 12.3228 33.8673 11.2968 33.2553C11.9268 32.6073 12.3048 31.7253 12.3048 30.7533C12.3048 28.8093 10.7208 27.2072 8.75877 27.2072H8.63277H0.0106506V27.9632C0.0106506 28.0015 0.013174 28.039 0.0180538 28.0757H0.00146484V39.8257H1.76399V39.8255C9.76277 39.8275 9.47878 39.8433 9.47878 39.8433C11.4408 39.8433 13.0248 38.2593 13.0248 36.2973ZM1.76399 32.7333V28.7913H8.75877C9.83879 28.7913 10.7208 29.6733 10.7208 30.7533C10.7208 31.8513 9.83879 32.7333 8.75877 32.7333H1.76399ZM6.52674 34.3173H1.76399V38.2593H9.47878C10.5588 38.2593 11.4408 37.3773 11.4408 36.2973C11.4408 35.2173 10.5588 34.3353 9.47878 34.3353V34.3173H6.52674ZM33.3636 39.8253L26.9375 27.2072H25.9655C25.4435 27.2072 24.9755 27.5132 24.7234 27.9632L18.6934 39.8253H20.4934L26.0195 28.9893L30.7535 38.2593H24.9215L24.1114 39.8253H33.3636ZM41.894 31.9413C42.344 31.9413 42.722 32.3193 42.722 32.7693V39.8253H41.894C41.444 39.8253 41.084 39.4653 41.084 39.0153V31.9413H41.894ZM46.7721 27.2072C47.2221 27.2072 47.5821 27.5852 47.5821 28.0353V28.7913H37.0339C36.5839 28.7913 36.2059 28.4313 36.2059 27.9632V27.2072H46.7721ZM54.9647 33.5253C54.9647 30.9153 57.0887 28.7913 59.6988 28.7913H64.3428C64.7929 28.7913 65.1709 28.4313 65.1709 27.9632V27.2072H59.6988C56.2067 27.2072 53.3807 30.0333 53.3807 33.5253C53.3807 37.0173 56.2067 39.8433 59.6988 39.8433C59.6988 39.8433 59.6268 39.8253 65.1709 39.8253V39.0873C65.1709 38.6193 64.7929 38.2593 64.3428 38.2593H59.6988C57.0887 38.2593 54.9647 36.1353 54.9647 33.5253ZM77.2313 27.2072L83.6574 39.8253H74.4053L75.2153 38.2593H81.0474L76.3133 28.9893L70.7872 39.8253H68.9872L75.0173 27.9632C75.2693 27.5132 75.7373 27.2072 76.2593 27.2072H77.2313ZM91.8098 34.0653L88.6418 27.8552C88.4438 27.4592 88.0298 27.2072 87.5978 27.2072H86.4998L91.1798 36.3693L91.8098 35.1273C91.9718 34.8033 91.9718 34.3893 91.8098 34.0653ZM101.17 27.2072H100.09C99.6399 27.2072 99.2439 27.4592 99.0279 27.8552L92.9258 39.8433H94.7439L101.17 27.2072ZM117.278 38.2593C117.728 38.2593 118.106 38.6193 118.106 39.0873V39.8253H106.135V39.8252H106.135V28.6626H106.135V27.2072H117.926V27.9632C117.926 28.4313 117.548 28.7913 117.098 28.7913H107.897V32.7333H116.81V33.4893C116.81 33.9393 116.45 34.3173 115.982 34.3173H107.897V38.2593H117.278Z" fill="white"/>
<path d="M125.506 27.7082H124.073C124.073 27.3832 124.225 27.2206 124.531 27.2206H127.486C127.486 27.5457 127.333 27.7082 127.028 27.7082H126.058V30.9278C126.058 31.0766 126.011 31.1902 125.917 31.2685C125.823 31.3469 125.686 31.386 125.506 31.386V27.7082ZM128.426 27.626C128.426 27.4811 128.475 27.3695 128.573 27.2911C128.671 27.2089 128.806 27.1677 128.978 27.1677L130.4 30.5812L130.288 30.8573L130.329 30.8749L131.833 27.1677C132.006 27.1677 132.141 27.2089 132.239 27.2911C132.341 27.3734 132.392 27.487 132.392 27.6319V31.386C132.027 31.386 131.845 31.2352 131.845 30.9337V28.4603L131.998 28.0549L131.951 28.0431L130.641 31.2274C130.621 31.2744 130.59 31.3116 130.547 31.339C130.504 31.3704 130.459 31.386 130.412 31.386C130.361 31.386 130.314 31.3723 130.271 31.3449C130.228 31.3175 130.196 31.2783 130.177 31.2274L128.866 28.0373L128.819 28.0549L128.972 28.4544V30.9337C128.972 31.0825 128.925 31.1961 128.831 31.2744C128.741 31.3488 128.606 31.386 128.426 31.386V27.626Z" fill="white"/>
<defs>
<linearGradient id="paint0_linear_10_595" x1="94.006" y1="29.9919" x2="94.006" y2="-0.00012207" gradientUnits="userSpaceOnUse">
<stop stop-color="#007AFF"/>
<stop offset="0.4615" stop-color="#004289"/>
<stop offset="1" stop-color="#001934"/>
</linearGradient>
<clipPath id="clip0_10_595">
<rect width="73.321" height="29.9627" fill="white" transform="translate(57.3345 -6.10352e-05)"/>
</clipPath>
</defs>
</svg>
