<svg width="27" height="24" viewBox="0 0 27 24" fill="none" xmlns="http://www.w3.org/2000/svg">
<path d="M23.2246 5.80187C23.0981 6.41855 22.7555 6.89819 22.3128 7.33566C20.4997 9.13299 18.6971 10.9356 16.8997 12.7435C15.9246 13.7238 14.7756 14.3669 13.4052 14.5882C13.031 14.6515 12.6515 14.7147 12.272 14.6568C11.8451 14.5882 11.571 14.2667 11.5762 13.8345C11.6026 12.2375 12.1086 10.8144 13.226 9.66534C15.2025 7.64136 17.2107 5.64901 19.2189 3.66193C20.4944 2.40222 22.7028 3.03471 23.1614 4.76352C23.1825 4.83204 23.2036 4.90056 23.2246 4.96908C23.2246 5.25371 23.2246 5.52779 23.2246 5.80187ZM13.3103 12.9227C13.3894 12.949 13.4526 12.9227 13.5159 12.9069C14.3276 12.7013 15.0286 12.306 15.6189 11.7209C17.5269 9.81819 19.4297 7.91017 21.3324 6.00743C21.3693 5.97053 21.4062 5.93364 21.4431 5.89147C21.7119 5.56468 21.6803 5.10612 21.3641 4.82677C21.0425 4.53688 20.6156 4.56324 20.273 4.90584C18.3545 6.8244 16.4359 8.74296 14.5173 10.6668C14.3803 10.8038 14.2485 10.9567 14.1273 11.1148C13.7214 11.6524 13.4368 12.2533 13.3103 12.9227Z" fill="white" fill-opacity="0.56"/>
<path d="M3.01113 13.8028C3.01113 12.211 3.01113 10.6192 3.01113 9.02744C3.0164 7.11415 4.54492 5.41169 6.45294 5.19032C6.66377 5.16396 6.86933 5.15869 7.08016 5.15869C9.23591 5.15869 11.3916 5.15869 13.5474 5.15869C14.0587 5.15869 14.4223 5.52765 14.396 6.01783C14.3749 6.38151 14.1008 6.69249 13.7477 6.76628C13.6265 6.79263 13.5 6.7979 13.3735 6.7979C11.2493 6.7979 9.12522 6.81371 7.0011 6.79263C5.9364 6.77682 4.90333 7.53581 4.68196 8.65321C4.64507 8.83769 4.61871 9.03271 4.61871 9.22245C4.61344 12.3059 4.61344 15.3893 4.61871 18.4727C4.61871 18.6571 4.64507 18.8416 4.74521 18.9997C5.00348 19.4003 5.5042 19.4899 5.87315 19.1789C6.31063 18.8153 6.73229 18.4252 7.15922 18.0405C7.35424 17.8612 7.57561 17.7822 7.83915 17.7822C10.5852 17.7875 13.3366 17.7822 16.0826 17.7822C17.2369 17.7822 18.1751 17.0232 18.4123 15.8952C18.465 15.6528 18.4756 15.3998 18.4756 15.1521C18.4703 14.6513 18.4703 14.1506 18.4756 13.6552C18.4808 13.2072 18.834 12.854 19.2767 12.854C19.7247 12.854 20.0779 13.2019 20.0779 13.6552C20.0831 14.2666 20.0779 14.878 20.0779 15.4894C20.0779 17.0548 19.1028 18.5043 17.6481 19.1051C17.1157 19.3265 16.5623 19.4214 15.993 19.4214C13.4367 19.4214 10.8804 19.4267 8.31879 19.4214C8.13431 19.4214 7.992 19.4636 7.86023 19.5901C7.58088 19.8536 7.29626 20.1066 7.00637 20.3543C6.30009 20.9657 5.49366 21.166 4.6029 20.855C3.70687 20.5441 3.19033 19.8852 3.0164 18.9576C2.99531 18.8469 3.00059 18.7362 3.00059 18.6255C3.01113 17.0127 3.01113 15.4103 3.01113 13.8028Z" fill="white" fill-opacity="0.56"/>
<path d="M8.1665 9.89712C8.54072 9.89712 8.91495 9.89712 9.28917 9.89712C9.75827 9.89712 10.1167 10.2081 10.143 10.6245C10.1694 11.1252 9.86896 11.5047 9.35769 11.5205C8.55653 11.5469 7.75538 11.5469 6.95422 11.5205C6.44296 11.5047 6.14252 11.1252 6.17415 10.6245C6.19523 10.2081 6.55891 9.89712 7.02801 9.89712C7.40224 9.89185 7.78173 9.89712 8.1665 9.89712Z" fill="white" fill-opacity="0.56"/>
<path d="M8.15564 13.0492C8.54567 13.0492 8.93044 13.0439 9.32048 13.0492C9.75268 13.0545 10.1058 13.3549 10.1427 13.745C10.1849 14.2193 9.92662 14.5725 9.46806 14.6568C9.40481 14.6673 9.33629 14.6779 9.27304 14.6779C8.52986 14.6779 7.78668 14.6832 7.04878 14.6779C6.51643 14.6726 6.17383 14.3353 6.17383 13.8451C6.17383 13.4076 6.51116 13.0598 6.95917 13.0492C7.35448 13.0439 7.75506 13.0545 8.15564 13.0492Z" fill="white" fill-opacity="0.56"/>
</svg>
