<svg width="24" height="24" viewBox="0 0 24 24" fill="none" xmlns="http://www.w3.org/2000/svg">
<path d="M17.664 9.75L17.4615 9.678L15.759 6.486C15.4392 5.88614 14.9624 5.38447 14.3796 5.03466C13.7967 4.68484 13.1298 4.50004 12.45 4.5H8.163C7.37576 4.49997 6.60848 4.74769 5.96988 5.20806C5.33128 5.66843 4.85377 6.3181 4.605 7.065L3.7935 9.4995C3.11363 9.78606 2.5334 10.2668 2.12544 10.8815C1.71748 11.4963 1.49992 12.2177 1.5 12.9555V14.625C1.5 15.69 2.1345 16.605 3.045 17.0175C3.16291 17.6931 3.50871 18.3078 4.02482 18.7594C4.54092 19.211 5.19616 19.4722 5.8814 19.4993C6.56664 19.5265 7.24051 19.3181 7.79077 18.9088C8.34102 18.4996 8.73444 17.9141 8.9055 17.25H15.0945C15.2656 17.9141 15.659 18.4996 16.2092 18.9088C16.7595 19.3181 17.4334 19.5265 18.1186 19.4993C18.8038 19.4722 19.4591 19.211 19.9752 18.7594C20.4913 18.3078 20.8371 17.6931 20.955 17.0175C21.4154 16.8097 21.8061 16.4734 22.0802 16.049C22.3542 15.6246 22.5 15.1302 22.5 14.625V14.1165C22.4999 13.3424 22.2602 12.5873 21.8138 11.9548C21.3675 11.3223 20.7363 10.8435 20.007 10.584L17.742 9.7785V9.75H17.664ZM8.163 6H9.75V9.75H5.2905L6.027 7.539C6.17633 7.09067 6.46302 6.70073 6.84642 6.42448C7.22981 6.14824 7.69045 5.99973 8.163 6ZM11.25 6H12.45C12.8579 5.99985 13.2582 6.1106 13.608 6.32038C13.9578 6.53017 14.244 6.8311 14.436 7.191L15.801 9.75H11.25V6ZM17.4045 11.25L19.5045 11.997C19.942 12.1527 20.3207 12.4401 20.5884 12.8195C20.8562 13.199 21 13.6521 21 14.1165V14.625C21 14.8875 20.91 15.129 20.76 15.321C20.5143 14.7443 20.0941 14.259 19.5585 13.9334C19.0228 13.6078 18.3986 13.4581 17.7735 13.5054C17.1485 13.5528 16.5539 13.7947 16.0734 14.1973C15.5929 14.5999 15.2506 15.1429 15.0945 15.75H8.9055C8.74944 15.1429 8.40711 14.5999 7.9266 14.1973C7.4461 13.7947 6.85155 13.5528 6.22647 13.5054C5.60139 13.4581 4.97719 13.6078 4.44154 13.9334C3.90589 14.259 3.4857 14.7443 3.24 15.321C3.0842 15.1225 2.99968 14.8774 3 14.625V12.9555C3 12.2805 3.3 11.6655 3.78 11.25H17.4045ZM4.5 16.5C4.5 16.1022 4.65804 15.7206 4.93934 15.4393C5.22064 15.158 5.60218 15 6 15C6.39782 15 6.77936 15.158 7.06066 15.4393C7.34196 15.7206 7.5 16.1022 7.5 16.5C7.5 16.8978 7.34196 17.2794 7.06066 17.5607C6.77936 17.842 6.39782 18 6 18C5.60218 18 5.22064 17.842 4.93934 17.5607C4.65804 17.2794 4.5 16.8978 4.5 16.5ZM18 15C18.3978 15 18.7794 15.158 19.0607 15.4393C19.342 15.7206 19.5 16.1022 19.5 16.5C19.5 16.8978 19.342 17.2794 19.0607 17.5607C18.7794 17.842 18.3978 18 18 18C17.6022 18 17.2206 17.842 16.9393 17.5607C16.658 17.2794 16.5 16.8978 16.5 16.5C16.5 16.1022 16.658 15.7206 16.9393 15.4393C17.2206 15.158 17.6022 15 18 15Z" fill="white" fill-opacity="0.56"/>
</svg>
