<svg width="24" height="24" viewBox="0 0 24 24" fill="none" xmlns="http://www.w3.org/2000/svg">
<path d="M14.3333 3C13.2811 3.00094 12.244 3.25073 11.3067 3.72897C10.3694 4.2072 9.55854 4.90033 8.94024 5.75175C8.32195 6.60318 7.91378 7.58876 7.74907 8.62803C7.58436 9.6673 7.66777 10.7308 7.9925 11.7317L3.195 16.5283C3.13311 16.5903 3.08403 16.6638 3.05058 16.7448C3.01712 16.8257 2.99993 16.9124 3 17V20.3333C3 20.5101 3.07024 20.6797 3.19526 20.8047C3.32029 20.9298 3.48986 21 3.66667 21H7C7.17681 21 7.34638 20.9298 7.47141 20.8047C7.59643 20.6797 7.66667 20.5101 7.66667 20.3333V19H9C9.17681 19 9.34638 18.9298 9.4714 18.8047C9.59643 18.6797 9.66667 18.5101 9.66667 18.3333V17H11C11.0876 17.0001 11.1743 16.9829 11.2552 16.9494C11.3362 16.916 11.4097 16.8669 11.4717 16.805L12.2683 16.0075C13.1846 16.305 14.1545 16.4004 15.1111 16.2871C16.0678 16.1738 16.9885 15.8545 17.81 15.3512C18.6314 14.8479 19.334 14.1725 19.8694 13.3717C20.4047 12.5708 20.7602 11.6634 20.9112 10.7119C21.0623 9.7605 21.0053 8.78763 20.7443 7.86031C20.4833 6.933 20.0244 6.07327 19.3992 5.34032C18.7741 4.60737 17.9975 4.01862 17.1229 3.61461C16.2484 3.21059 15.2967 3.00091 14.3333 3ZM14.3333 15C13.6585 15.0011 12.9896 14.8736 12.3625 14.6242C12.2398 14.5709 12.104 14.5558 11.9726 14.5808C11.8412 14.6057 11.7204 14.6696 11.6258 14.7642L10.7242 15.6667H9C8.82319 15.6667 8.65362 15.7369 8.5286 15.8619C8.40357 15.987 8.33333 16.1565 8.33333 16.3333V17.6667H7C6.82319 17.6667 6.65362 17.7369 6.5286 17.8619C6.40357 17.987 6.33333 18.1565 6.33333 18.3333V19.6667H4.33333V17.2758L9.23583 12.3742C9.33036 12.2796 9.39426 12.1588 9.41922 12.0274C9.44419 11.896 9.42907 11.7602 9.37583 11.6375C8.95424 10.5774 8.88371 9.40999 9.17461 8.30682C9.4655 7.20365 10.1025 6.22283 10.992 5.50842C11.8815 4.79401 12.9767 4.38367 14.1166 4.33767C15.2566 4.29167 16.3812 4.61243 17.3254 5.25284C18.2696 5.89324 18.9835 6.81955 19.3624 7.89569C19.7412 8.97184 19.765 10.1411 19.4302 11.2318C19.0954 12.3224 18.4197 13.277 17.5023 13.9552C16.5849 14.6334 15.4742 14.9996 14.3333 15ZM17 8C17 8.19778 16.9414 8.39112 16.8315 8.55557C16.7216 8.72002 16.5654 8.84819 16.3827 8.92388C16.2 8.99957 15.9989 9.01937 15.8049 8.98079C15.6109 8.9422 15.4327 8.84696 15.2929 8.70711C15.153 8.56725 15.0578 8.38907 15.0192 8.19509C14.9806 8.00111 15.0004 7.80004 15.0761 7.61732C15.1518 7.43459 15.28 7.27841 15.4444 7.16853C15.6089 7.05865 15.8022 7 16 7C16.2652 7 16.5196 7.10536 16.7071 7.29289C16.8946 7.48043 17 7.73478 17 8Z" fill="white" fill-opacity="0.56"/>
</svg>
