<svg width="24" height="24" viewBox="0 0 24 24" fill="none" xmlns="http://www.w3.org/2000/svg">
<path d="M11.2988 7.17389C11.2988 7.95087 11.2988 8.73416 11.2988 9.51114C11.2925 10.5471 10.5471 11.2988 9.50483 11.2988C7.93823 11.2988 6.37164 11.2988 4.80505 11.2988C3.75645 11.2988 3.00474 10.5471 3.00474 9.49219C2.99842 7.93824 2.99842 6.37796 3.00474 4.81769C3.00474 3.75013 3.75645 3.00474 4.824 3.00474C6.37796 2.99842 7.9256 2.99842 9.47956 3.00474C10.5661 3.00474 11.2988 3.75013 11.2988 4.83664C11.3051 5.61362 11.2988 6.39691 11.2988 7.17389ZM10.2818 7.17389C10.2818 6.41586 10.2818 5.66415 10.2818 4.90612C10.2818 4.29339 10.0354 4.04703 9.42271 4.04703C7.91297 4.04703 6.39691 4.04703 4.88717 4.04703C4.28707 4.04703 4.04071 4.29339 4.03439 4.88717C4.02808 5.34199 4.03439 5.80312 4.03439 6.25794C4.03439 7.28759 4.03439 8.32357 4.03439 9.35322C4.03439 10.0102 4.2997 10.2755 4.95034 10.2755C6.44113 10.2755 7.9256 10.2755 9.41639 10.2755C10.0291 10.2755 10.2881 10.0102 10.2881 9.39112C10.2818 8.65836 10.2818 7.91297 10.2818 7.17389Z" fill="white" fill-opacity="0.56"/>
<path d="M16.845 11.3051C16.0554 11.3051 15.2721 11.3051 14.4825 11.3051C13.4402 11.2988 12.6948 10.5534 12.6948 9.51114C12.6948 7.93823 12.6948 6.35901 12.6948 4.7861C12.6948 3.7754 13.4402 3.01105 14.4509 3.00474C16.0428 2.99842 17.6346 2.99842 19.2265 3.00474C20.2372 3.01105 20.9889 3.76277 20.9952 4.77347C21.0015 6.35901 21.0015 7.93824 20.9952 9.52378C20.9889 10.5471 20.2309 11.2925 19.2139 11.2988C18.8222 11.2988 18.4243 11.2988 18.0326 11.2988C17.6346 11.3051 17.2367 11.3051 16.845 11.3051ZM16.845 4.04703C16.0807 4.04703 15.3163 4.04703 14.552 4.04703C13.9708 4.04703 13.7182 4.30602 13.7182 4.88086C13.7182 6.39059 13.7182 7.90665 13.7182 9.41639C13.7182 9.99754 13.9961 10.2755 14.5709 10.2755C16.0807 10.2755 17.5967 10.2755 19.1065 10.2755C19.6813 10.2755 19.9656 10.0039 19.9719 9.42271C19.9782 7.90033 19.9782 6.38428 19.9719 4.86191C19.9719 4.29338 19.7066 4.04703 19.1381 4.04703C18.3737 4.04703 17.6094 4.04703 16.845 4.04703Z" fill="white" fill-opacity="0.56"/>
<path d="M7.14231 12.6949C7.91928 12.6949 8.70258 12.6949 9.47956 12.6949C10.5534 12.6949 11.2988 13.434 11.2988 14.5015C11.2988 16.0618 11.2988 17.6221 11.2988 19.1823C11.2988 20.2373 10.5534 20.989 9.50483 20.9953C7.93824 21.0016 6.37164 21.0016 4.80505 20.9953C3.76908 20.989 3.01105 20.2436 3.00474 19.2076C2.99842 17.6221 2.99842 16.0428 3.00474 14.4573C3.01105 13.4466 3.76908 12.7012 4.77979 12.7012C5.5694 12.6886 6.35269 12.6949 7.14231 12.6949ZM7.14862 19.9467C7.91928 19.9467 8.68995 19.9467 9.46693 19.9467C10.0165 19.9467 10.2818 19.6814 10.2818 19.1381C10.2818 17.6094 10.2818 16.0807 10.2818 14.552C10.2818 13.9835 10.0102 13.7182 9.43534 13.7182C7.91297 13.7182 6.39691 13.7182 4.87454 13.7182C4.33129 13.7182 4.04071 13.9772 4.03439 14.5141C4.02176 16.0681 4.02176 17.6157 4.03439 19.1697C4.04071 19.7003 4.31234 19.9467 4.83664 19.9467C5.60098 19.9467 6.37796 19.9467 7.14862 19.9467Z" fill="white" fill-opacity="0.56"/>
<path d="M12.6948 16.8451C12.6948 16.0492 12.6948 15.2532 12.6948 14.4573C12.7011 13.4466 13.4465 12.6949 14.4572 12.6886C16.0491 12.6823 17.641 12.6823 19.2328 12.6886C20.2182 12.6886 20.9826 13.434 20.9889 14.4131C21.0015 16.0176 21.0015 17.6284 20.9889 19.2329C20.9826 20.231 20.2246 20.9763 19.2265 20.9827C17.6346 20.989 16.0428 20.989 14.4509 20.9827C13.4402 20.9763 12.7011 20.212 12.6948 19.2013C12.6885 18.4243 12.6948 17.6347 12.6948 16.8451ZM16.8198 19.9467C17.6157 19.9467 18.4116 19.953 19.2075 19.9467C19.6624 19.9467 19.8835 19.7382 19.9529 19.2961C19.9656 19.2013 19.9656 19.1065 19.9656 19.0118C19.9656 18.0137 19.9656 17.0093 19.9656 16.0113C19.9656 15.5249 19.9719 15.0321 19.9656 14.5457C19.9529 13.9899 19.675 13.7182 19.1254 13.7182C17.5967 13.7182 16.068 13.7182 14.5394 13.7182C13.9898 13.7182 13.7118 13.9962 13.7118 14.5521C13.7118 16.0807 13.7118 17.6094 13.7118 19.1381C13.7118 19.6814 13.9772 19.9467 14.5267 19.953C15.2911 19.9467 16.0554 19.9467 16.8198 19.9467Z" fill="white" fill-opacity="0.56"/>
</svg>
