<svg width="24" height="24" viewBox="0 0 24 24" fill="none" xmlns="http://www.w3.org/2000/svg">
<path d="M20.2858 12.3571C20.2858 14.2838 20.2858 16.2044 20.2858 18.131C20.2858 19.7216 19.0073 21 17.4168 21C13.5635 21 9.70424 21 5.85095 21C4.29043 21 3 19.7096 3 18.1611C3 14.2898 3 10.4185 3 6.55318C3 5.01067 4.29643 3.72024 5.83895 3.72024C6.13304 3.72024 6.42114 3.71424 6.71524 3.72024C6.85929 3.72624 6.93731 3.69623 6.97933 3.53418C7.06936 3.18606 7.34545 3 7.69356 3C8.02968 3 8.31177 3.19206 8.3898 3.52217C8.43181 3.69623 8.51584 3.72024 8.67189 3.72024C10.4485 3.71424 12.2191 3.72024 13.9957 3.72024C14.2117 3.72024 14.4278 3.71424 14.6439 3.72024C14.7699 3.72624 14.8419 3.69623 14.878 3.55218C14.974 3.19206 15.2441 3 15.6042 3C15.9463 3 16.2164 3.19807 16.3064 3.54618C16.3424 3.69023 16.4085 3.72024 16.5345 3.72024C17.0027 3.73224 17.4768 3.67222 17.945 3.76225C19.2774 4.00834 20.2738 5.20874 20.2798 6.56519C20.2858 8.49783 20.2858 10.4305 20.2858 12.3571ZM11.6369 9.50017C9.33211 9.50017 7.02734 9.50017 4.72257 9.49416C4.53051 9.49416 4.46449 9.54818 4.46449 9.74625C4.47049 12.4832 4.47049 15.2261 4.47049 17.963C4.47049 18.1851 4.5005 18.4131 4.58453 18.6232C4.81861 19.2054 5.33478 19.5295 6.05502 19.5295C9.78226 19.5295 13.5095 19.5295 17.2367 19.5295C17.4768 19.5295 17.7169 19.4995 17.939 19.4035C18.5812 19.1154 18.8153 18.5812 18.8153 17.915C18.8153 15.2141 18.8153 12.5132 18.8153 9.80627C18.8153 9.49416 18.8153 9.49416 18.5092 9.49416C16.2224 9.50017 13.9296 9.50017 11.6369 9.50017ZM11.6189 8.02968C12.7052 8.02968 13.7916 8.02968 14.878 8.02968C16.1144 8.02968 17.3508 8.02968 18.5812 8.02968C18.7493 8.02968 18.8213 7.98766 18.8153 7.8016C18.8033 7.43548 18.8213 7.06936 18.8093 6.70323C18.7913 5.86295 18.3231 5.33478 17.4948 5.20874C17.1527 5.15472 16.8046 5.19673 16.4625 5.18473C16.3485 5.17873 16.3364 5.25675 16.3124 5.34078C16.2044 5.7069 15.9523 5.89897 15.5922 5.90497C15.2321 5.90497 14.968 5.7129 14.872 5.34678C14.8359 5.21474 14.7819 5.18473 14.6559 5.18473C12.6392 5.18473 10.6285 5.18473 8.61187 5.18473C8.49183 5.18473 8.43181 5.21474 8.3958 5.34678C8.29977 5.7129 8.03568 5.90497 7.67556 5.90497C7.32144 5.90497 7.06335 5.7129 6.96132 5.34678C6.93131 5.23274 6.88329 5.18473 6.76325 5.19073C6.48716 5.19673 6.21107 5.18473 5.93498 5.19673C5.1127 5.23875 4.60253 5.6949 4.4885 6.51117C4.42848 6.91931 4.47049 7.33344 4.46449 7.74758C4.45849 8.04168 4.46449 8.04168 4.76459 8.04168C7.05135 8.02968 9.33811 8.02968 11.6189 8.02968Z" fill="white" fill-opacity="0.56"/>
<path d="M12.3749 12.3151C12.3749 12.7712 12.0688 13.0953 11.6366 13.0953C11.2285 13.0953 10.9104 12.7832 10.9044 12.3751C10.8984 11.9189 11.2165 11.6008 11.6786 11.6008C12.0988 11.6068 12.3749 11.8889 12.3749 12.3151Z" fill="white" fill-opacity="0.56"/>
<path d="M12.3757 16.3305C12.3757 16.7987 12.1416 17.0447 11.6855 17.0447C11.2293 17.0447 10.9052 16.7386 10.9112 16.3065C10.9112 15.9224 11.2653 15.5803 11.6795 15.5863C12.0696 15.5983 12.4297 15.8684 12.3757 16.3305Z" fill="white" fill-opacity="0.56"/>
<path d="M15.2197 12.381C15.2197 11.9429 15.5198 11.6248 15.934 11.6248C16.3721 11.6248 16.6722 11.9309 16.6782 12.375C16.6782 12.7831 16.3601 13.0952 15.946 13.0892C15.5138 13.0892 15.2197 12.8011 15.2197 12.381Z" fill="white" fill-opacity="0.56"/>
<path d="M6.5957 16.3424C6.5957 15.8983 6.90781 15.5862 7.35796 15.5802C7.74209 15.5742 8.06019 15.9043 8.06619 16.3004C8.0722 16.7385 7.76009 17.0326 7.28593 17.0386C6.8838 17.0386 6.5957 16.7505 6.5957 16.3424Z" fill="white" fill-opacity="0.56"/>
<path d="M15.2197 16.3124C15.2197 15.8683 15.5018 15.5742 15.922 15.5802C16.3541 15.5862 16.6782 15.9343 16.6782 16.3844C16.6722 16.7386 16.3421 17.0447 15.964 17.0447C15.5378 17.0507 15.2197 16.7326 15.2197 16.3124Z" fill="white" fill-opacity="0.56"/>
<path d="M6.5957 12.3872C6.5957 11.925 6.86579 11.6309 7.29794 11.6309C7.73608 11.6249 8.06619 11.943 8.06619 12.3692C8.06619 12.7473 7.68207 13.0774 7.23792 13.0834C6.8778 13.0834 6.5957 12.7773 6.5957 12.3872Z" fill="white" fill-opacity="0.56"/>
</svg>
