<svg width="25" height="24" viewBox="0 0 25 24" fill="none" xmlns="http://www.w3.org/2000/svg">
<path d="M21.3211 8.43494C21.2399 8.94594 21.1157 9.44739 20.896 9.92019C20.4901 10.7894 19.8836 11.4866 19.0669 11.9976C18.9523 12.0693 18.9141 12.1361 18.9332 12.2698C18.9762 12.6041 19.1004 12.9002 19.2866 13.1772C19.5541 13.5832 19.8263 13.9891 20.0985 14.395C20.1272 14.438 20.1797 14.4858 20.1606 14.5383C20.1319 14.6004 20.0555 14.5861 19.9982 14.5813C19.2675 14.5765 18.5321 14.6243 17.8014 14.5526C16.7268 14.4428 15.9006 13.9079 15.3228 12.9957C15.1843 12.7808 14.9503 12.6853 14.7067 12.7617C14.6017 12.7952 14.659 12.862 14.6733 12.9193C14.7736 13.2823 14.8452 13.6452 14.8739 14.0225C14.9312 14.7914 14.8118 15.5364 14.5014 16.2337C13.7659 17.8813 12.4956 18.8508 10.719 19.1612C10.2653 19.2376 9.80206 19.2042 9.3436 19.2042C9.20988 19.2042 9.13347 19.2472 9.05705 19.3665C8.40278 20.4268 7.46197 20.9903 6.20595 20.9951C5.58511 20.9998 4.96904 20.9951 4.3482 20.9951C4.29567 20.9951 4.22881 21.0189 4.20015 20.9616C4.1715 20.9091 4.22881 20.8613 4.25746 20.8184C4.54401 20.3838 4.83055 19.954 5.11232 19.5194C5.25559 19.3045 5.34155 19.0609 5.39408 18.8126C5.43229 18.6454 5.39886 18.5356 5.23648 18.4305C3.93271 17.5661 3.16382 16.3483 3.02055 14.7914C2.78177 12.1027 4.65385 9.95362 7.06081 9.54291C7.36168 9.49038 7.66255 9.4665 7.96819 9.4665C8.49352 9.4665 9.01885 9.46172 9.5394 9.4665C9.67312 9.4665 9.72088 9.44262 9.67312 9.29457C9.5203 8.82178 9.44389 8.32988 9.45821 7.8332C9.47732 6.94015 9.697 6.09962 10.1793 5.34028C11.0437 3.97443 12.2854 3.17688 13.8901 3.03839C14.7784 2.96198 15.6762 3.02406 16.5692 3.01929C16.9609 3.01451 17.3429 3.07182 17.7154 3.17211C19.6162 3.66401 21.0441 5.28775 21.302 7.23624C21.3068 7.26489 21.3163 7.29355 21.3259 7.3222C21.3211 7.69471 21.3211 8.06244 21.3211 8.43494ZM8.96632 10.5888C8.35025 10.6079 7.75328 10.5554 7.1611 10.6604C4.68728 11.1046 3.35008 13.9557 4.58221 16.1429C5.00247 16.8832 5.59944 17.4276 6.36833 17.781C6.47339 17.8288 6.5307 17.8861 6.54503 18.015C6.59756 18.6024 6.5116 19.166 6.27281 19.7056C6.2155 19.8393 6.23938 19.8728 6.37788 19.868C6.86978 19.8393 7.28526 19.6483 7.65299 19.3283C7.98252 19.0418 8.18787 18.6788 8.31682 18.2681C8.3598 18.1249 8.43621 18.0723 8.58903 18.0771C8.8708 18.0867 9.14779 18.0819 9.42956 18.0771C9.84505 18.0723 10.2653 18.1058 10.676 18.0293C13.2883 17.5566 14.6017 14.5956 13.1833 12.351C12.5338 11.3242 11.5882 10.7416 10.3704 10.6127C9.89758 10.5697 9.42001 10.6127 8.96632 10.5888ZM15.2225 4.14635C14.8404 4.16546 14.2817 4.10337 13.7229 4.18456C11.3112 4.54751 9.88325 7.20758 10.91 9.42352C10.953 9.51903 11.0103 9.57634 11.1154 9.60022C12.2854 9.87721 13.2263 10.5028 13.9426 11.4675C14.019 11.5726 14.1002 11.6156 14.2244 11.6108C14.6876 11.606 15.1556 11.6108 15.6189 11.6108C16.0248 11.6108 15.9436 11.6203 16.0535 11.9212C16.383 12.8143 17.0038 13.3348 17.9638 13.4303C18.1261 13.4447 18.1357 13.4112 18.0688 13.2775C17.8444 12.7952 17.7775 12.2794 17.7775 11.7493C17.7775 11.4962 17.8635 11.3529 18.107 11.2335C19.6114 10.4933 20.4137 8.94117 20.1701 7.29355C19.9122 5.53131 18.3936 4.18456 16.6122 4.14158C16.2111 4.14158 15.8099 4.14635 15.2225 4.14635Z" fill="white" fill-opacity="0.56"/>
<path d="M8.63646 16.1763C8.58393 16.1763 8.55527 16.1333 8.51707 16.1047C7.97264 15.6319 7.43298 15.1543 6.88855 14.6863C6.78826 14.6003 6.78348 14.5382 6.87422 14.4427C7.05092 14.2565 7.22285 14.0654 7.38045 13.8648C7.48074 13.7407 7.5476 13.7646 7.65266 13.8553C7.901 14.0845 8.16366 14.2994 8.41678 14.5287C8.50751 14.6099 8.55527 14.5955 8.63168 14.5096C9.14746 13.8983 9.67279 13.2965 10.1838 12.6852C10.2936 12.5515 10.3748 12.5468 10.499 12.6661C10.6805 12.8381 10.8715 12.9957 11.0673 13.158C11.158 13.2345 11.1533 13.2965 11.0816 13.3825C10.3032 14.2899 9.52474 15.1973 8.74152 16.1094C8.70809 16.1333 8.68422 16.1715 8.63646 16.1763Z" fill="white" fill-opacity="0.56"/>
<path d="M17.391 9.1227C17.391 9.19911 17.3433 9.22776 17.3051 9.26597C17.1236 9.44745 16.9373 9.62415 16.7654 9.8104C16.6747 9.90591 16.6126 9.91069 16.5171 9.8104C16.1923 9.4761 15.858 9.15613 15.538 8.82183C15.433 8.71199 15.3757 8.72154 15.2754 8.8266C14.9602 9.15613 14.6259 9.4761 14.3059 9.80562C14.2104 9.90591 14.1435 9.91547 14.048 9.8104C13.8761 9.62415 13.6946 9.44267 13.5036 9.26597C13.3937 9.16568 13.4129 9.10359 13.5084 9.00808C13.8379 8.68811 14.1531 8.35858 14.4874 8.03861C14.5972 7.93355 14.5877 7.86668 14.4826 7.76639C14.1531 7.44642 13.8379 7.1169 13.5084 6.79693C13.4081 6.69664 13.4081 6.63455 13.5084 6.53904C13.6898 6.36711 13.8665 6.19041 14.0385 6.00893C14.134 5.90864 14.1961 5.89909 14.2964 6.00416C14.6068 6.32413 14.9268 6.63933 15.2419 6.95452C15.4043 7.1169 15.4043 7.1169 15.5715 6.94975C15.8819 6.63933 16.1971 6.32891 16.5027 6.01371C16.5935 5.91819 16.6603 5.89432 16.7606 6.00416C16.9373 6.19519 17.1236 6.38144 17.3146 6.55814C17.4053 6.6441 17.4006 6.70619 17.3146 6.79215C16.9851 7.11212 16.6699 7.44165 16.3404 7.76162C16.2257 7.87146 16.2066 7.93354 16.3356 8.05294C16.6651 8.36336 16.9803 8.68811 17.3003 9.00808C17.3289 9.05106 17.3624 9.09404 17.391 9.1227Z" fill="white" fill-opacity="0.56"/>
</svg>
