<svg width="25" height="25" viewBox="0 0 25 25" fill="none" xmlns="http://www.w3.org/2000/svg">
<g clip-path="url(#clip0_474_6)">
<path d="M8.39781 17.3419C7.35433 17.3419 6.60899 16.4475 6.90713 15.404C7.05619 14.2115 7.5034 13.168 7.95061 11.9754C7.95061 11.8264 8.09967 11.5282 8.24874 11.3792C8.39781 10.7829 8.84501 10.1866 9.29222 9.73942C11.5282 7.50339 13.7643 5.26737 16.0003 3.03134C16.7456 2.286 17.491 1.54066 18.2363 0.795319C19.1307 -0.0990908 20.6214 -0.0990908 21.6649 0.795319C22.2612 1.39159 22.8574 1.98787 23.3046 2.43507C24.1991 3.47855 24.1991 4.82016 23.1556 5.86364C20.3233 8.69594 17.491 11.5282 14.6587 14.3605C13.9133 15.2549 13.0189 15.8512 11.8264 16.1494C10.7829 16.4475 9.73942 16.8947 8.54688 17.1928C8.69595 17.3419 8.54688 17.3419 8.39781 17.3419ZM13.7643 13.0189C15.5531 11.2301 17.491 9.29221 19.2798 7.50339C18.3854 6.60898 17.491 5.71457 16.5966 4.82016C14.8077 6.60898 12.8699 8.54687 11.081 10.3357C11.9754 11.2301 12.8699 12.1245 13.7643 13.0189ZM20.4723 6.16178C21.0686 5.56551 21.5158 5.1183 22.1121 4.52203C22.4102 4.22389 22.4102 3.92575 22.1121 3.62762C21.5158 3.03134 20.9195 2.43507 20.3233 1.8388C20.0251 1.54066 19.727 1.54066 19.4289 1.8388C18.9817 2.43507 18.3854 3.03134 17.9382 3.62762C18.8326 4.37296 19.5779 5.26737 20.4723 6.16178ZM8.39781 15.7022C9.88849 15.404 11.081 14.8077 12.4227 14.2115C11.5282 13.3171 10.6338 12.5717 9.88849 11.6773C9.29222 13.0189 8.69595 14.2115 8.39781 15.7022Z" fill="white"/>
<path d="M11.5282 24.05C9.14316 24.05 6.75806 24.05 4.37297 24.05C2.28601 24.05 0.646261 22.7084 0.199056 20.7705C0.0499878 20.4723 0.0499878 20.1742 0.0499878 19.8761C0.0499878 15.404 0.0499878 10.932 0.0499878 6.60899C0.0499878 4.52204 1.54067 2.88228 3.47856 2.43508C3.7767 2.43508 3.92576 2.43508 4.2239 2.43508C5.41645 2.43508 6.75806 2.43508 7.95061 2.43508C8.54688 2.28601 8.84502 2.58415 8.99409 3.03135C8.99409 3.62762 8.69595 3.92576 8.09968 3.92576C6.90713 3.92576 5.56552 3.92576 4.37297 3.92576C3.18042 3.92576 2.13694 4.6711 1.83881 5.71458C1.83881 6.01272 1.68974 6.31085 1.68974 6.45992C1.68974 10.932 1.68974 15.255 1.68974 19.727C1.68974 21.2177 2.73322 22.2612 4.2239 22.2612C8.99409 22.2612 13.7643 22.2612 18.5345 22.2612C20.0251 22.2612 21.0686 21.2177 21.0686 19.5779C21.0686 18.3854 21.0686 17.1928 21.0686 15.8512C21.0686 15.255 21.3668 14.9568 21.963 14.9568C22.4102 14.9568 22.8574 15.255 22.8574 15.8512C22.8574 17.0438 22.8574 18.3854 22.8574 19.5779C22.8574 21.963 21.0686 23.7518 18.6835 23.9009C16.2984 24.05 13.9133 24.05 11.5282 24.05Z" fill="white"/>
</g>
<defs>
<clipPath id="clip0_474_6">
<rect width="24" height="24" fill="white" transform="translate(0.0499878 0.0499878)"/>
</clipPath>
</defs>
</svg>
