<svg width="24" height="24" viewBox="0 0 24 24" fill="none" xmlns="http://www.w3.org/2000/svg">
<g clip-path="url(#clip0_323_19)">
<path d="M5.83972 0C6.01604 0.181656 6.11755 0.753339 5.98932 0.977738C5.94124 1.06322 5.81835 1.14871 5.72218 1.15939C5.6367 1.17008 5.50847 1.10062 5.4497 1.02582C5.28407 0.81211 5.39093 0.170971 5.60464 0.00534283C5.67944 0 5.75958 0 5.83972 0Z" fill="white"/>
<path d="M4.31167 15.7828C4.79252 15.6599 5.13981 15.3714 5.46572 15.0561C5.94657 14.5966 6.4862 14.2387 7.11131 14.0036C8.42565 13.5174 9.71861 13.5708 10.9742 14.1799C11.5993 14.4844 12.2458 14.6394 12.9403 14.6127C13.4105 14.5966 13.8753 14.618 14.3455 14.602C14.5111 14.5966 14.6821 14.5486 14.8264 14.4738C15.2805 14.244 15.7186 13.9929 16.1674 13.7525C16.9795 13.325 17.7756 13.3678 18.5343 13.886C18.6465 13.9608 18.7213 13.9555 18.8281 13.8967C19.5281 13.5334 20.2386 13.6242 20.805 14.1746C20.9332 14.2974 21.0187 14.2921 21.163 14.2226C22.0499 13.8006 23.1184 14.0944 23.6474 14.9012C23.8077 15.1416 23.7809 15.2966 23.5459 15.4568C21.195 17.0704 18.8549 18.6946 16.4933 20.2868C15.8362 20.7302 15.0454 20.8531 14.26 20.8958C13.4639 20.9386 12.6946 20.7356 11.9199 20.5966C10.8887 20.415 9.86287 20.2173 8.83705 20.0303C8.53251 19.9769 8.24934 20.0517 7.98754 20.212C7.39448 20.586 6.80143 20.9653 6.20303 21.334C6.0748 21.4141 6.04275 21.4889 6.09083 21.6332C6.28317 22.2369 6.45949 22.8406 6.64649 23.4444C6.76403 23.8344 6.64649 23.984 6.24043 23.984C4.68032 23.984 3.11487 23.984 1.55477 23.984C1.20748 23.984 1.12734 23.9252 1.0846 23.5779C0.902941 22.1193 0.726628 20.6661 0.544971 19.2075C0.368658 17.7382 0.187002 16.2583 0.0106882 14.7783C-0.0320545 14.431 0.080145 14.2974 0.427429 14.2974C1.4586 14.2974 2.48976 14.3028 3.52093 14.2921C3.76136 14.2921 3.90027 14.3883 3.96438 14.618C4.07124 15.008 4.18878 15.382 4.31167 15.7828ZM16.9688 16.5788C16.8299 15.8202 16.1354 15.2592 15.2591 15.2485C14.4951 15.2378 13.7257 15.2271 12.9617 15.2538C12.1549 15.2805 11.4016 15.1256 10.6803 14.7569C9.9163 14.3669 9.0935 14.26 8.24399 14.3776C7.33571 14.5058 6.55031 14.8958 5.89315 15.537C5.5138 15.9056 5.09706 16.2102 4.5895 16.3865C4.56278 16.3972 4.54141 16.4185 4.50935 16.4453C4.95281 17.9039 5.39626 19.3518 5.84506 20.821C6.45414 20.4364 7.0472 20.0677 7.62957 19.6937C8.05165 19.4212 8.50579 19.3304 8.99733 19.4159C9.8789 19.5708 10.7605 19.7471 11.642 19.9021C12.4007 20.0356 13.1647 20.1906 13.9288 20.2494C14.7569 20.3135 15.5744 20.1532 16.2743 19.6777C18.4541 18.2031 20.6126 16.7071 22.7818 15.2164C22.8406 15.1737 22.8994 15.1309 22.9582 15.0828C22.52 14.6554 21.943 14.5432 21.4301 14.8104C20.2066 15.4515 18.9991 16.114 17.7809 16.7712C17.7275 16.8032 17.6741 16.878 17.6634 16.9421C17.6153 17.22 17.5298 17.3001 17.2413 17.2894C16.7498 17.2681 16.2582 17.2253 15.7667 17.2253C14.8531 17.2253 13.9448 17.2467 13.0312 17.2734C12.7587 17.2841 12.5931 17.2093 12.5717 17.0009C12.5503 16.7872 12.6839 16.6483 12.9564 16.6376C13.8273 16.6109 14.7035 16.5949 15.5744 16.5788C16.0392 16.5735 16.4987 16.5788 16.9688 16.5788ZM0.673199 14.9439C0.780056 15.8255 0.88157 16.6697 0.983084 17.5138C1.21283 19.3785 1.44257 21.2485 1.66162 23.1131C1.68299 23.3001 1.74177 23.3589 1.92876 23.3589C3.18433 23.3535 4.44524 23.3535 5.7008 23.3535C5.7756 23.3535 5.8504 23.3482 5.93589 23.3429C5.91452 23.2681 5.90383 23.2253 5.89315 23.1826C5.10775 20.586 4.31701 17.9893 3.52627 15.3981C3.38736 14.9493 3.38736 14.9493 2.90116 14.9493C2.16919 14.9439 1.43722 14.9439 0.673199 14.9439ZM20.3562 14.6554C20.0036 14.3081 19.5601 14.2387 19.1487 14.4577C18.6625 14.7195 18.171 14.9813 17.6848 15.2431C17.5138 15.334 17.3482 15.4301 17.1879 15.521C17.3161 15.7454 17.4283 15.9537 17.5512 16.1728C18.4915 15.6652 19.4212 15.163 20.3562 14.6554ZM18.0321 14.3295C17.2039 13.87 16.5468 14.244 15.8949 14.6501C16.146 14.7783 16.3918 14.9065 16.6429 15.0241C16.675 15.0401 16.7338 15.0294 16.7712 15.008C17.1772 14.7943 17.5886 14.5699 18.0321 14.3295Z" fill="white"/>
<path d="M11.8878 0.999097C15.0401 1.02047 17.5352 3.55831 17.5085 6.71058C17.4871 9.80408 14.9332 12.3045 11.8183 12.2832C8.71949 12.2564 6.19234 9.70257 6.22439 6.60907C6.25645 3.49954 8.79964 0.977726 11.8878 0.999097ZM11.8397 11.6474C14.5699 11.6901 16.8299 9.46749 16.8727 6.69456C16.9101 3.9804 14.7088 1.68832 12.0107 1.64558C9.23241 1.59749 6.91896 3.78271 6.87088 6.49153C6.82279 9.3446 8.99732 11.6046 11.8397 11.6474Z" fill="white"/>
<path d="M6.02671 2.19059C6.02671 2.27607 6.03205 2.36156 6.02671 2.44704C6.01068 2.63404 5.90916 2.75693 5.71682 2.76227C5.52448 2.76761 5.40694 2.65007 5.39625 2.46307C5.38022 2.27073 5.38022 2.07305 5.40159 1.8807C5.41762 1.70439 5.53517 1.59753 5.71682 1.59753C5.90382 1.60288 6.01602 1.71508 6.03205 1.90742C6.03205 2.00359 6.02671 2.09976 6.02671 2.19059Z" fill="white"/>
<path d="M19.3945 4.18343C19.3945 4.0926 19.3838 3.99643 19.3945 3.9056C19.4212 3.72395 19.528 3.6064 19.7204 3.61175C19.9074 3.61709 20.0089 3.72929 20.0249 3.9056C20.041 4.0926 20.041 4.2796 20.0249 4.4666C20.0142 4.6536 19.8967 4.77114 19.7097 4.77648C19.5174 4.77648 19.4105 4.65894 19.3891 4.47194C19.3838 4.37043 19.3945 4.27426 19.3945 4.18343Z" fill="white"/>
<path d="M19.3891 5.79163C19.3891 5.70614 19.3838 5.62066 19.3891 5.53517C19.4052 5.34283 19.5013 5.20392 19.7044 5.20392C19.9127 5.20392 20.0142 5.33215 20.0249 5.52983C20.0356 5.7008 20.0356 5.87177 20.0249 6.04274C20.0142 6.24043 19.87 6.37934 19.699 6.36866C19.5067 6.35263 19.4052 6.23509 19.3891 6.05343C19.3838 5.9626 19.3945 5.87712 19.3891 5.79163Z" fill="white"/>
<path d="M6.50223 1.69369C6.40072 1.69369 6.29921 1.70438 6.19769 1.69369C6.01604 1.67232 5.92521 1.55478 5.93055 1.37312C5.93589 1.20215 6.03206 1.08995 6.19769 1.07927C6.40072 1.06324 6.60375 1.06858 6.80143 1.07927C6.98843 1.08995 7.0846 1.21818 7.0846 1.38915C7.0846 1.56012 6.98309 1.68301 6.80143 1.69904C6.69992 1.70438 6.5984 1.69369 6.50223 1.69369Z" fill="white"/>
<path d="M4.90473 1.6937C4.8139 1.6937 4.71773 1.69904 4.6269 1.6937C4.43456 1.67767 4.3277 1.56547 4.33305 1.37313C4.33839 1.19147 4.4399 1.08462 4.62156 1.07393C4.8139 1.06325 5.01159 1.06325 5.20393 1.07393C5.39093 1.08462 5.4871 1.2075 5.49244 1.37847C5.49244 1.54944 5.39627 1.67233 5.20927 1.68836C5.10776 1.70439 5.00624 1.6937 4.90473 1.6937Z" fill="white"/>
<path d="M20.5004 5.29475C20.3989 5.29475 20.2974 5.30543 20.2012 5.29475C20.0356 5.27338 19.9394 5.16652 19.9341 4.99555C19.9288 4.82458 20.0142 4.70169 20.1852 4.68567C20.3989 4.66429 20.618 4.66964 20.8317 4.68567C21.0027 4.70169 21.0935 4.82992 21.0882 4.99021C21.0828 5.16652 20.9866 5.27872 20.7996 5.30009C20.7035 5.30543 20.602 5.30009 20.5004 5.29475C20.5004 5.30009 20.5004 5.30009 20.5004 5.29475Z" fill="white"/>
<path d="M18.9083 5.30009C18.8121 5.30009 18.7213 5.30543 18.6251 5.30009C18.4435 5.28406 18.342 5.17186 18.3366 4.99021C18.3366 4.81924 18.4221 4.69635 18.5931 4.68567C18.8014 4.66964 19.0151 4.66964 19.2235 4.68567C19.4052 4.70169 19.496 4.82992 19.4853 5.01158C19.4746 5.18255 19.3785 5.28406 19.2021 5.30009C19.1113 5.30543 19.0098 5.30009 18.9083 5.30009Z" fill="white"/>
<path d="M3.62778 23.0704C3.08815 23.065 2.65004 22.6216 2.65538 22.0819C2.66073 21.5423 3.11487 21.1042 3.64915 21.1149C4.19412 21.1202 4.62154 21.5637 4.6162 22.1086C4.6162 22.6483 4.17275 23.0757 3.62778 23.0704ZM3.63312 22.4346C3.81478 22.4399 3.97506 22.285 3.97506 22.098C3.97506 21.911 3.82546 21.756 3.64381 21.7507C3.45681 21.7453 3.30721 21.9003 3.30187 22.0873C3.30187 22.2796 3.44612 22.4346 3.63312 22.4346Z" fill="white"/>
<path d="M12.8816 5.86645C12.6144 6.77473 12.016 7.25024 11.0222 7.27695C11.1024 7.3571 11.1558 7.41587 11.2146 7.4693C11.7115 7.95015 12.2137 8.43635 12.7159 8.9172C12.8548 9.05077 12.919 9.20037 12.8014 9.37669C12.6839 9.55834 12.4702 9.56369 12.2778 9.38737C11.9359 9.0668 11.6046 8.73555 11.2627 8.41498C10.8566 8.02495 10.4559 7.63492 10.0499 7.2449C9.92697 7.12736 9.82545 6.99913 9.91094 6.81213C9.98574 6.6465 10.1353 6.61444 10.301 6.61444C10.6055 6.61979 10.91 6.63047 11.2146 6.61979C11.6687 6.60376 12.0267 6.33127 12.1923 5.87713C12.1122 5.87179 12.0427 5.8611 11.9679 5.8611C11.4069 5.85042 10.8459 5.85042 10.2796 5.83439C10.0285 5.82905 9.90025 5.71685 9.89491 5.51916C9.89491 5.31614 10.0338 5.19859 10.2956 5.20394C10.8406 5.20394 11.3909 5.20928 11.9359 5.21462C12.0214 5.21462 12.1015 5.21462 12.2137 5.21462C12.0374 4.77117 11.7596 4.50403 11.3161 4.4506C10.9848 4.4132 10.6483 4.42388 10.3117 4.41854C10.0499 4.4132 9.91094 4.301 9.91094 4.09797C9.91094 3.89494 10.0499 3.78809 10.317 3.78809C11.3482 3.79343 12.3793 3.80411 13.4105 3.8148C13.7044 3.82014 13.8593 3.93234 13.8486 4.14606C13.8433 4.35443 13.699 4.45594 13.4158 4.45594C13.138 4.45594 12.8548 4.45594 12.577 4.45594C12.6732 4.69102 12.7587 4.92077 12.8602 5.14517C12.8762 5.18791 12.951 5.21996 12.9991 5.22531C13.154 5.24134 13.309 5.23599 13.4693 5.24134C13.7097 5.25202 13.8486 5.38025 13.8433 5.56725C13.8379 5.7489 13.6937 5.86645 13.4693 5.87179C13.2769 5.86645 13.0846 5.86645 12.8816 5.86645Z" fill="white"/>
</g>
<defs>
<clipPath id="clip0_323_19">
<rect width="23.7489" height="24" fill="white"/>
</clipPath>
</defs>
</svg>
