<svg width="26" height="24" viewBox="0 0 26 24" fill="none" xmlns="http://www.w3.org/2000/svg">
<g clip-path="url(#clip0_458_38)">
<path d="M18.816 8.128C18.944 8 19.008 7.872 19.136 7.744C19.648 7.232 20.096 6.784 20.608 6.272C21.504 5.376 22.784 5.376 23.744 6.272C24 6.528 24.256 6.72 24.448 6.976C25.344 7.936 25.344 9.216 24.448 10.112C22.656 11.904 20.864 13.76 19.008 15.552C18.816 15.744 18.752 15.872 18.752 16.128C18.752 17.664 18.752 19.136 18.752 20.672C18.752 22.528 17.472 23.872 15.616 23.872C11.456 23.872 7.296 23.872 3.136 23.872C1.28 23.936 0 22.592 0 20.672C0 17.6 0 14.528 0 11.456C0 10.24 0 9.024 0 7.744C0 7.552 0.128 7.232 0.32 7.104C2.88 4.8 5.44 2.496 8 0.192C8.128 0.128 8.384 0 8.576 0C10.88 0 13.248 0 15.552 0C17.152 0 18.432 1.024 18.688 2.56C18.752 2.816 18.752 3.072 18.752 3.328C18.752 4.928 18.752 6.464 18.752 8.064L18.816 8.128ZM1.472 8.448C1.472 8.64 1.472 8.768 1.472 8.832C1.472 10.496 1.472 12.16 1.472 13.76C1.472 16.128 1.472 18.432 1.472 20.8C1.472 21.632 1.92 22.272 2.688 22.464C2.88 22.528 3.136 22.528 3.328 22.528C7.36 22.528 11.392 22.528 15.424 22.528C15.488 22.528 15.552 22.528 15.68 22.528C16.64 22.464 17.28 21.76 17.28 20.8C17.28 19.712 17.28 18.688 17.28 17.6C17.28 17.536 17.28 17.472 17.28 17.344C16.704 17.92 16.128 18.496 15.552 19.072C15.296 19.328 14.976 19.52 14.592 19.584C13.504 19.84 12.352 20.16 11.264 20.416C10.624 20.608 10.112 20.16 10.304 19.52C10.624 18.368 10.88 17.152 11.2 16C11.264 15.744 11.392 15.488 11.584 15.296C13.376 13.44 15.232 11.648 17.024 9.792C17.152 9.664 17.216 9.472 17.216 9.344C17.216 7.296 17.216 5.248 17.216 3.2C17.216 3.072 17.216 2.88 17.152 2.752C16.96 1.92 16.32 1.408 15.424 1.408C13.44 1.408 11.456 1.408 9.472 1.408C9.344 1.408 9.28 1.408 9.152 1.408C9.152 1.536 9.152 1.664 9.152 1.728C9.152 2.816 9.152 3.904 9.152 5.056C9.152 5.312 9.152 5.568 9.088 5.824C8.768 7.36 7.552 8.384 5.952 8.384C4.544 8.384 3.2 8.384 1.792 8.384C1.728 8.448 1.6 8.448 1.472 8.448ZM20.096 8.832L20.032 8.896C17.6 11.328 15.168 13.76 12.736 16.192C12.672 16.256 12.608 16.32 12.608 16.384C12.416 17.152 12.224 17.92 12.032 18.752C12.16 18.752 12.224 18.752 12.288 18.688C12.928 18.496 13.568 18.368 14.208 18.176C14.4 18.112 14.528 18.048 14.656 17.92C17.024 15.552 19.392 13.184 21.76 10.816C21.824 10.752 21.888 10.688 21.952 10.624C21.312 10.048 20.736 9.472 20.096 8.832ZM2.688 6.912C2.752 6.912 2.816 6.976 2.816 6.976C3.968 6.976 5.12 6.976 6.272 6.976C7.104 6.976 7.744 6.208 7.808 5.376C7.808 4.48 7.808 3.52 7.808 2.624C7.808 2.56 7.808 2.496 7.808 2.432C6.08 3.904 4.416 5.376 2.688 6.912ZM22.976 9.6C23.104 9.408 23.296 9.28 23.488 9.088C23.744 8.768 23.744 8.448 23.488 8.128C23.232 7.808 22.912 7.552 22.656 7.296C22.4 7.04 22.016 7.04 21.76 7.296C21.568 7.488 21.376 7.68 21.248 7.808C21.76 8.384 22.336 8.96 22.976 9.6Z" fill="white"/>
</g>
<defs>
<clipPath id="clip0_458_38">
<rect width="25.088" height="24" fill="white"/>
</clipPath>
</defs>
</svg>
